<svg width="153" height="96" viewBox="0 0 153 96" fill="none" xmlns="http://www.w3.org/2000/svg">
<circle cx="6.69385" cy="5.03955" r="5" fill="#7F5AF0"/>
<circle cx="26.6938" cy="5.03955" r="5" fill="#7F5AF0"/>
<circle cx="46.6938" cy="5.03955" r="5" fill="#7F5AF0"/>
<circle cx="66.6938" cy="5.03955" r="5" fill="#7F5AF0"/>
<circle cx="86.6938" cy="5.03955" r="5" fill="#7F5AF0"/>
<circle cx="106.694" cy="5.03955" r="5" fill="#7F5AF0"/>
<circle cx="126.694" cy="5.03955" r="5" fill="#7F5AF0"/>
<circle cx="146.694" cy="5.03955" r="5" fill="#7F5AF0"/>
<circle cx="6.69385" cy="32.2474" r="5" fill="#7F5AF0"/>
<circle cx="26.6938" cy="32.2474" r="5" fill="#7F5AF0"/>
<circle cx="46.6938" cy="32.2474" r="5" fill="#7F5AF0"/>
<circle cx="66.6938" cy="32.2474" r="5" fill="#7F5AF0"/>
<circle cx="86.6938" cy="32.2474" r="5" fill="#7F5AF0"/>
<circle cx="106.694" cy="32.2474" r="5" fill="#7F5AF0"/>
<circle cx="126.694" cy="32.2474" r="5" fill="#7F5AF0"/>
<circle cx="146.694" cy="32.2474" r="5" fill="#7F5AF0"/>
<circle cx="6.69385" cy="59.4553" r="5" fill="#7F5AF0"/>
<circle cx="26.6938" cy="59.4553" r="5" fill="#7F5AF0"/>
<circle cx="46.6938" cy="59.4553" r="5" fill="#7F5AF0"/>
<circle cx="66.6938" cy="59.4553" r="5" fill="#7F5AF0"/>
<circle cx="86.6938" cy="59.4553" r="5" fill="#7F5AF0"/>
<circle cx="106.694" cy="59.4553" r="5" fill="#7F5AF0"/>
<circle cx="126.694" cy="59.4553" r="5" fill="#7F5AF0"/>
<circle cx="146.694" cy="59.4553" r="5" fill="#7F5AF0"/>
<circle cx="5.68518" cy="86.6633" r="5" fill="#7F5AF0"/>
<circle cx="25.6852" cy="86.6633" r="5" fill="#7F5AF0"/>
<circle cx="45.6852" cy="86.6633" r="5" fill="#7F5AF0"/>
<circle cx="65.6852" cy="86.6633" r="5" fill="#7F5AF0"/>
<circle cx="85.6852" cy="86.6633" r="5" fill="#7F5AF0"/>
<circle cx="105.685" cy="86.6633" r="5" fill="#7F5AF0"/>
<circle cx="125.685" cy="86.6633" r="5" fill="#7F5AF0"/>
<circle cx="145.685" cy="86.6633" r="5" fill="#7F5AF0"/>
</svg>
