<svg width="35" height="36" viewBox="0 0 35 36" fill="none" xmlns="http://www.w3.org/2000/svg">
<path fill-rule="evenodd" clip-rule="evenodd" d="M17.5 0.37439C7.83854 0.37439 0 8.21293 0 17.8744C0 27.5358 7.83854 35.3744 17.5 35.3744C27.1425 35.3744 35 27.5358 35 17.8744C35 8.21293 27.1425 0.37439 17.5 0.37439ZM29.0588 8.44043C31.2134 11.0645 32.4057 14.3465 32.4377 17.7417C31.9448 17.6469 27.0098 16.6406 22.0369 17.2677C21.9217 17.0198 21.8269 16.7544 21.7131 16.489C21.4038 15.7589 21.0751 15.0373 20.7273 14.3248C26.231 12.0848 28.7365 8.85897 29.0588 8.44043ZM17.5 2.9571C21.296 2.9571 24.7698 4.37897 27.4079 6.71377C27.1425 7.09293 24.8835 10.1117 19.5694 12.1038C17.1194 7.60627 14.4069 3.92251 13.9883 3.35376C15.1394 3.08498 16.3179 2.95137 17.5 2.95564V2.9571ZM11.1417 4.36001C11.5398 4.89231 14.1969 8.59356 16.6833 12.9963C9.69792 14.8571 3.52917 14.8192 2.86563 14.8192C3.83396 10.1875 6.96646 6.3346 11.1417 4.36001ZM2.54333 17.8933V17.4383C3.18937 17.4573 10.4388 17.5521 17.8996 15.3121C18.3356 16.1477 18.7338 17.0008 19.1129 17.8554C18.9233 17.9123 18.7148 17.9692 18.5252 18.0261C10.8194 20.5125 6.71854 27.3069 6.37729 27.8771C3.90893 25.1376 2.54304 21.5808 2.54333 17.8933ZM17.5 32.8311C14.1779 32.8363 10.9501 31.7271 8.33292 29.6811C8.59833 29.1298 11.6346 23.2833 20.0623 20.3419C20.1002 20.3229 20.1206 20.3229 20.1571 20.304C22.2644 25.7508 23.1175 30.3256 23.3465 31.6352C21.5425 32.414 19.5694 32.8311 17.5 32.8311ZM25.8329 30.2688C25.6813 29.3573 24.8835 24.9925 22.9279 19.62C27.6165 18.8806 31.7158 20.0954 32.2292 20.2661C31.5831 24.4223 29.1915 28.0098 25.8329 30.2688Z" fill="#FFFFFE"/>
</svg>
