<svg width="35" height="23" viewBox="0 0 35 23" fill="none" xmlns="http://www.w3.org/2000/svg">
<path d="M32.083 3.41621H21.8748V0.499573H32.083V3.41621ZM34.6 17.9994C33.9555 19.8908 31.6411 22.3743 27.1612 22.3743C22.6783 22.3743 19.0471 19.8529 19.0471 14.0984C19.0471 8.39636 22.4377 5.46514 27.0182 5.46514C31.5128 5.46514 34.2573 8.06387 34.8567 11.9197C34.9705 12.6576 35.0157 13.6521 34.9952 15.0405H23.2893C23.4789 19.7231 28.3687 19.8704 29.9801 17.9994H34.6ZM23.3914 12.1661H30.632C30.4788 9.9101 28.9753 8.93011 27.0197 8.93011C24.8818 8.93011 23.6991 10.0501 23.3914 12.1661ZM9.42948 22.3568H0V0.530197H10.1397C18.1254 0.648321 18.2771 8.46928 14.1063 10.6013C19.1535 12.4388 19.3227 22.3568 9.42948 22.3568ZM4.37495 9.24948H9.60156C13.259 9.24948 13.8394 4.87453 9.14657 4.87453H4.37495V9.24948ZM9.32011 13.6244H4.37495V18.0227H9.24719C13.7024 18.0227 13.4296 13.6244 9.32011 13.6244Z" fill="#FFFFFE"/>
</svg>
