<svg width="35" height="36" viewBox="0 0 35 36" fill="currentColor" xmlns="http://www.w3.org/2000/svg">
<path fill-rule="evenodd" clip-rule="evenodd" d="M10.2852 0.479451C12.1514 0.393542 12.7464 0.374451 17.5 0.374451C22.2536 0.374451 22.8486 0.395132 24.7132 0.479451C26.5777 0.563769 27.8505 0.861269 28.9641 1.29241C30.1302 1.73309 31.1882 2.42195 32.0632 3.31286C32.9541 4.18627 33.6414 5.24263 34.0805 6.41036C34.5132 7.524 34.8091 8.79672 34.895 10.6581C34.9809 12.5274 35 13.1224 35 17.8745C35 22.6281 34.9793 23.2231 34.895 25.0892C34.8107 26.9506 34.5132 28.2233 34.0805 29.337C33.6414 30.5048 32.9529 31.563 32.0632 32.4376C31.1882 33.3285 30.1302 34.0158 28.9641 34.4549C27.8505 34.8876 26.5777 35.1835 24.7164 35.2695C22.8486 35.3554 22.2536 35.3745 17.5 35.3745C12.7464 35.3745 12.1514 35.3538 10.2852 35.2695C8.42386 35.1851 7.15114 34.8876 6.0375 34.4549C4.86965 34.0158 3.81153 33.3274 2.93682 32.4376C2.04651 31.5637 1.35755 30.5061 0.917955 29.3385C0.486818 28.2249 0.190909 26.9522 0.105 25.0908C0.0190909 23.2215 0 22.6265 0 17.8745C0 13.1208 0.0206818 12.5258 0.105 10.6613C0.189318 8.79672 0.486818 7.524 0.917955 6.41036C1.3582 5.24276 2.04769 4.18518 2.93841 3.31127C3.81188 2.42116 4.86893 1.7322 6.03591 1.29241C7.14955 0.861269 8.42227 0.56536 10.2836 0.479451H10.2852ZM24.5716 3.62945C22.7261 3.54513 22.1725 3.52763 17.5 3.52763C12.8275 3.52763 12.2739 3.54513 10.4284 3.62945C8.72136 3.70741 7.79545 3.99218 7.17818 4.23241C6.36205 4.55059 5.77818 4.92763 5.16568 5.54013C4.58507 6.10499 4.13824 6.79263 3.85795 7.55263C3.61773 8.16991 3.33295 9.09581 3.255 10.8029C3.17068 12.6483 3.15318 13.202 3.15318 17.8745C3.15318 22.547 3.17068 23.1006 3.255 24.946C3.33295 26.6531 3.61773 27.579 3.85795 28.1963C4.13795 28.9551 4.585 29.644 5.16568 30.2088C5.73045 30.7895 6.41932 31.2365 7.17818 31.5165C7.79545 31.7567 8.72136 32.0415 10.4284 32.1195C12.2739 32.2038 12.8259 32.2213 17.5 32.2213C22.1741 32.2213 22.7261 32.2038 24.5716 32.1195C26.2786 32.0415 27.2045 31.7567 27.8218 31.5165C28.638 31.1983 29.2218 30.8213 29.8343 30.2088C30.415 29.644 30.862 28.9551 31.142 28.1963C31.3823 27.579 31.667 26.6531 31.745 24.946C31.8293 23.1006 31.8468 22.547 31.8468 17.8745C31.8468 13.202 31.8293 12.6483 31.745 10.8029C31.667 9.09581 31.3823 8.16991 31.142 7.55263C30.8239 6.7365 30.4468 6.15263 29.8343 5.54013C29.2694 4.95956 28.5818 4.51274 27.8218 4.23241C27.2045 3.99218 26.2786 3.70741 24.5716 3.62945ZM15.2648 23.2692C16.5131 23.7889 17.9031 23.859 19.1974 23.4676C20.4917 23.0763 21.6099 22.2477 22.3612 21.1235C23.1125 19.9992 23.4501 18.649 23.3164 17.3035C23.1828 15.9579 22.5861 14.7005 21.6284 13.746C21.0179 13.1359 20.2797 12.6687 19.4669 12.3781C18.6541 12.0875 17.787 11.9807 16.9281 12.0654C16.0691 12.1502 15.2396 12.4243 14.4992 12.8681C13.7589 13.3119 13.1262 13.9143 12.6466 14.6319C12.1671 15.3496 11.8526 16.1647 11.7258 17.0185C11.5991 17.8723 11.6632 18.7436 11.9136 19.5696C12.164 20.3956 12.5944 21.1559 13.1739 21.7956C13.7533 22.4353 14.4674 22.9386 15.2648 23.2692ZM11.1395 11.514C11.9748 10.6787 12.9664 10.0162 14.0577 9.56412C15.1491 9.11207 16.3188 8.87941 17.5 8.87941C18.6812 8.87941 19.8509 9.11207 20.9423 9.56412C22.0336 10.0162 23.0252 10.6787 23.8605 11.514C24.6957 12.3493 25.3583 13.3409 25.8103 14.4322C26.2624 15.5235 26.495 16.6932 26.495 17.8745C26.495 19.0557 26.2624 20.2254 25.8103 21.3167C25.3583 22.408 24.6957 23.3996 23.8605 24.2349C22.1736 25.9218 19.8856 26.8695 17.5 26.8695C15.1144 26.8695 12.8264 25.9218 11.1395 24.2349C9.45265 22.548 8.50496 20.2601 8.50496 17.8745C8.50496 15.4888 9.45265 13.2009 11.1395 11.514ZM28.49 10.219C28.697 10.0237 28.8627 9.78894 28.9773 9.5285C29.0919 9.26806 29.1531 8.98726 29.1573 8.70275C29.1614 8.41823 29.1084 8.13578 29.0014 7.8721C28.8945 7.60843 28.7357 7.3689 28.5345 7.1677C28.3333 6.96649 28.0938 6.8077 27.8301 6.70073C27.5664 6.59376 27.2839 6.54078 26.9994 6.54492C26.7149 6.54907 26.4341 6.61026 26.1737 6.72488C25.9132 6.83949 25.6784 7.00519 25.4832 7.21218C25.1034 7.61472 24.8955 8.14942 24.9036 8.70275C24.9117 9.25608 25.1351 9.78449 25.5264 10.1758C25.9177 10.5671 26.4461 10.7905 26.9994 10.7986C27.5528 10.8066 28.0875 10.5987 28.49 10.219Z" fill="#FFFFFE"/>
</svg>
